HIERARCHY
ROOT Hips
{
	OFFSET 0.000000 89.005402 0.000000
	CHANNELS 6 Xposition Yposition Zposition Xrotation Yrotation Zrotation
	JOINT Spine
	{
		OFFSET 0.116900 10.681000 0.373400
		CHANNELS 3 Xrotation Yrotation Zrotation
		JOINT Spine1
		{
			OFFSET 0.000000 13.840401 0.053500
			CHANNELS 3 Xrotation Yrotation Zrotation
			JOINT Spine2
			{
				OFFSET 0.000000 14.712700 -0.366200
				CHANNELS 3 Xrotation Yrotation Zrotation
				JOINT Neck
				{
					OFFSET 0.000000 35.415497 -3.314200
					CHANNELS 3 Xrotation Yrotation Zrotation
					JOINT Head
					{
						OFFSET 0.000000 16.899200 1.218300
						CHANNELS 3 Xrotation Yrotation Zrotation
						JOINT HeadTop_End
						{
							OFFSET 0.000000 22.206207 2.192500
							CHANNELS 3 Xrotation Yrotation Zrotation
							End Site
							{
								OFFSET 0.000000 22.314178 0.000000
							}
						}
					}
				}
				JOINT LeftShoulder
				{
					OFFSET 12.896400 26.716293 -4.548400
					CHANNELS 3 Xrotation Yrotation Zrotation
					JOINT LeftArm
					{
						OFFSET 19.027000 -4.857010 -1.718400
						CHANNELS 3 Xrotation Yrotation Zrotation
						JOINT LeftForeArm
						{
							OFFSET 24.179897 0.000000 0.000000
							CHANNELS 3 Xrotation Yrotation Zrotation
							JOINT LeftHand
							{
								OFFSET 27.156403 0.000000 0.000000
								CHANNELS 3 Xrotation Yrotation Zrotation
								JOINT LeftHandIndex1
								{
									OFFSET 16.441200 0.000000 0.000000
									CHANNELS 3 Xrotation Yrotation Zrotation
									JOINT LeftHandIndex2
									{
										OFFSET 4.821899 0.000000 0.000000
										CHANNELS 3 Xrotation Yrotation Zrotation
										JOINT LeftHandIndex3
										{
											OFFSET 6.386497 0.000000 0.000000
											CHANNELS 3 Xrotation Yrotation Zrotation
											JOINT LeftHandIndex4
											{
												OFFSET 5.188988 0.000000 0.000000
												CHANNELS 3 Xrotation Yrotation Zrotation
												End Site
												{
													OFFSET -0.178703 5.185913 0.000177
												}
											}
										}
									}
								}
								JOINT LeftHandThumb1
								{
									OFFSET 6.534897 -5.032593 5.900300
									CHANNELS 3 Xrotation Yrotation Zrotation
									JOINT LeftHandThumb2
									{
										OFFSET 3.818176 -2.204422 2.204423
										CHANNELS 3 Xrotation Yrotation Zrotation
										JOINT LeftHandThumb3
										{
											OFFSET 3.252098 -1.877594 1.877601
											CHANNELS 3 Xrotation Yrotation Zrotation
											JOINT LeftHandThumb4
											{
												OFFSET 5.251778 -3.032120 3.032117
												CHANNELS 3 Xrotation Yrotation Zrotation
												End Site
												{
													OFFSET 0.000023 6.780014 0.000000
												}
											}
										}
									}
								}
							}
						}
					}
				}
				JOINT RightShoulder
				{
					OFFSET -12.896300 26.716293 -4.548400
					CHANNELS 3 Xrotation Yrotation Zrotation
					JOINT RightArm
					{
						OFFSET -19.027000 -4.857010 -1.718400
						CHANNELS 3 Xrotation Yrotation Zrotation
						JOINT RightForeArm
						{
							OFFSET -24.179897 0.000000 0.000000
							CHANNELS 3 Xrotation Yrotation Zrotation
							JOINT RightHand
							{
								OFFSET -27.156403 0.000000 0.000000
								CHANNELS 3 Xrotation Yrotation Zrotation
								JOINT RightHandThumb1
								{
									OFFSET -6.591202 -4.852203 5.988100
									CHANNELS 3 Xrotation Yrotation Zrotation
									JOINT RightHandThumb2
									{
										OFFSET -3.818176 -2.204422 2.204423
										CHANNELS 3 Xrotation Yrotation Zrotation
										JOINT RightHandThumb3
										{
											OFFSET -3.252098 -1.877594 1.877601
											CHANNELS 3 Xrotation Yrotation Zrotation
											JOINT RightHandThumb4
											{
												OFFSET -5.251778 -3.032120 3.032117
												CHANNELS 3 Xrotation Yrotation Zrotation
												End Site
												{
													OFFSET -0.000023 6.780014 0.000000
												}
											}
										}
									}
								}
								JOINT RightHandIndex1
								{
									OFFSET -16.029404 0.000000 0.000000
									CHANNELS 3 Xrotation Yrotation Zrotation
									JOINT RightHandIndex2
									{
										OFFSET -5.213303 0.000000 0.000000
										CHANNELS 3 Xrotation Yrotation Zrotation
										JOINT RightHandIndex3
										{
											OFFSET -6.386528 0.000000 0.000000
											CHANNELS 3 Xrotation Yrotation Zrotation
											JOINT RightHandIndex4
											{
												OFFSET -5.189026 0.000000 0.000000
												CHANNELS 3 Xrotation Yrotation Zrotation
												End Site
												{
													OFFSET 0.236702 5.183624 0.001972
												}
											}
										}
									}
								}
							}
						}
					}
				}
			}
		}
	}
	JOINT LeftUpLeg
	{
		OFFSET 14.073000 -7.904099 -1.463000
		CHANNELS 3 Xrotation Yrotation Zrotation
		JOINT LeftLeg
		{
			OFFSET -0.109806 -34.073280 4.093200
			CHANNELS 3 Xrotation Yrotation Zrotation
			JOINT LeftFoot
			{
				OFFSET 0.109806 -29.899420 -6.319000
				CHANNELS 3 Xrotation Yrotation Zrotation
				JOINT LeftToeBase
				{
					OFFSET 1.551100 -14.988700 20.535801
					CHANNELS 3 Xrotation Yrotation Zrotation
					JOINT LeftToe_End
					{
						OFFSET 0.221200 0.570800 13.248301
						CHANNELS 3 Xrotation Yrotation Zrotation
						End Site
						{
							OFFSET 0.000000 13.262435 0.000000
						}
					}
				}
			}
		}
	}
	JOINT RightUpLeg
	{
		OFFSET -13.839300 -7.904099 -1.463000
		CHANNELS 3 Xrotation Yrotation Zrotation
		JOINT RightLeg
		{
			OFFSET 0.109694 -34.073219 4.093300
			CHANNELS 3 Xrotation Yrotation Zrotation
			JOINT RightFoot
			{
				OFFSET -0.109694 -29.899384 -6.319200
				CHANNELS 3 Xrotation Yrotation Zrotation
				JOINT RightToeBase
				{
					OFFSET -1.551100 -14.988700 20.535801
					CHANNELS 3 Xrotation Yrotation Zrotation
					JOINT RightToe_End
					{
						OFFSET -0.221200 0.570900 13.248299
						CHANNELS 3 Xrotation Yrotation Zrotation
						End Site
						{
							OFFSET 0.000000 13.262440 0.000000
						}
					}
				}
			}
		}
	}
}
MOTION
Frames: 6
Frame Time: 0.033333
-0.242296 84.436501 1.364804 -6.392781 -5.698744 1.093405 2.544733 0.484787 0.492353 4.948197 0.939333 -0.560310 4.946198 0.953264 -0.558836 -8.349617 3.211578 -1.236409 -10.945850 13.928921 -1.184397 -0.000000 0.000001 -0.000000 0.564196 4.362970 -11.003351 44.826962 -72.006607 -13.921006 0.000008 -7.866929 0.000018 -30.043806 -8.654670 -6.076614 0.444880 2.439218 -20.669754 0.266308 1.899998 -15.955351 0.066880 0.959291 -7.975458 -0.000000 -0.000001 -0.000002 -1.071857 9.179028 1.142312 3.471706 9.485638 0.989222 -0.801969 2.345776 2.635779 -0.000003 -0.000001 -0.000002 1.213624 -0.111471 10.999898 2.111154 44.801349 52.695237 -0.000008 20.243555 0.000011 -9.905693 -8.911076 14.459138 -10.367140 -13.698125 -11.609876 4.637189 -8.634126 -0.225408 -1.273753 0.137320 -2.094846 0.000003 0.000000 0.000001 0.066529 -0.961506 7.915612 0.008736 -0.349006 2.865050 0.002173 -0.174553 1.432509 0.000002 -0.000001 -0.000000 0.728060 21.919914 6.406682 23.190347 3.854734 2.117939 -16.612736 2.186822 -9.034546 -0.017961 -0.000000 0.000001 -0.000000 -0.000000 -0.000000 -6.288000 -26.604401 -10.808560 29.008606 6.066374 -3.212904 -18.732289 -0.719564 4.557816 -0.033395 0.000014 0.000001 0.000000 -0.000000 -0.000000 
-0.071400 84.421677 1.282205 -6.420024 -6.860124 0.830585 2.498560 0.306219 0.544310 4.853627 0.576102 -0.456966 4.852703 0.589681 -0.456017 -8.247979 3.549688 -1.315271 -10.295690 15.449664 -1.339416 -0.000000 0.000000 -0.000000 0.557684 4.633005 -11.120117 44.944260 -71.727771 -14.387409 -0.000004 -7.758442 0.000012 -30.413094 -8.392872 -5.955980 0.444658 2.438575 -20.664234 0.266211 1.899687 -15.952518 0.066853 0.959108 -7.974049 -0.000000 0.000001 0.000000 -1.071792 9.177303 1.145531 3.471838 9.486977 0.989396 -0.801920 2.346455 2.635877 -0.000002 -0.000001 0.000000 1.195497 -0.168175 10.979077 1.341115 45.326235 53.661726 -0.000017 19.663385 0.000037 -11.404507 -8.084449 14.140458 -10.367136 -13.698119 -11.609830 4.637193 -8.634133 -0.225437 -1.273755 0.137315 -2.094855 0.000000 -0.000001 -0.000002 0.066526 -0.961499 7.915648 0.008730 -0.349002 2.865045 0.002169 -0.174556 1.432512 0.000003 -0.000003 -0.000002 0.933092 22.604064 6.388516 23.286328 4.364451 2.241776 -16.882908 2.267137 -9.191304 -0.040237 -0.000009 -0.000002 -0.000000 0.000002 0.000000 -6.686642 -25.992491 -10.743533 29.124336 6.460253 -3.238937 -18.380536 -0.368802 4.475125 -0.031993 0.000002 0.000002 -0.000000 0.000002 0.000000 
0.106800 84.407013 1.213751 -6.483830 -8.091724 0.549068 2.450546 0.094682 0.597319 4.756166 0.147364 -0.356457 4.756480 0.160612 -0.356190 -8.092519 3.925429 -1.400609 -9.595950 17.145631 -1.497981 -0.000000 -0.000000 -0.000000 0.551697 4.948388 -11.248644 45.041259 -71.289396 -14.952555 0.000019 -7.685276 0.000005 -30.825624 -8.150280 -5.826472 0.444454 2.438085 -20.659758 0.266173 1.899578 -15.951642 0.066825 0.959052 -7.973615 -0.000000 0.000001 0.000002 -1.071530 9.179731 1.139582 3.472479 9.484750 0.985390 -0.801584 2.345332 2.633943 0.000000 0.000002 -0.000003 1.176763 -0.225320 10.958478 0.531205 45.984945 54.603947 0.000001 19.023098 0.000011 -12.856035 -7.189080 13.986264 -10.367139 -13.698115 -11.609839 4.637198 -8.634128 -0.225398 -1.273757 0.137318 -2.094875 -0.000002 0.000000 -0.000001 0.066527 -0.961499 7.915621 0.008721 -0.349007 2.865048 0.002181 -0.174556 1.432528 -0.000001 0.000000 -0.000002 1.210391 23.372077 6.352347 23.349425 4.907734 2.404240 -17.163354 2.324223 -9.391688 -0.055973 -0.000003 0.000001 -0.000000 0.000002 0.000000 -7.045237 -25.346311 -10.646774 29.220908 6.876355 -3.289296 -18.009720 -0.002855 4.409478 -0.029771 0.000005 0.000001 0.000000 -0.000000 -0.000000 
0.304175 84.396515 1.186772 -6.625898 -9.454746 0.224120 2.399670 -0.199837 0.651321 4.654993 -0.446293 -0.265703 4.656936 -0.433329 -0.266541 -7.794968 4.412523 -1.520355 -8.827280 19.345561 -1.650991 -0.000000 0.000000 0.000000 0.546511 5.405266 -11.423247 45.205853 -70.422986 -15.623088 -0.000000 -7.725196 -0.000003 -31.314116 -7.966602 -5.679366 0.445288 2.440262 -20.679304 0.266514 1.900696 -15.961208 0.066929 0.959634 -7.978407 0.000000 -0.000001 0.000001 -1.072057 9.184622 1.131855 3.472048 9.480805 0.985440 -0.801816 2.343378 2.633900 0.000001 -0.000001 -0.000001 1.154608 -0.288031 10.935773 -0.313970 47.127957 55.354059 -0.000004 18.182831 0.000018 -14.169723 -6.114103 14.291445 -10.367143 -13.698120 -11.609849 4.637195 -8.634124 -0.225378 -1.273758 0.137313 -2.094875 -0.000000 0.000000 -0.000001 0.066527 -0.961502 7.915605 0.008722 -0.349011 2.865050 0.002178 -0.174554 1.432517 0.000001 -0.000003 -0.000001 1.662066 24.342900 6.268629 23.321567 5.546441 2.677145 -17.467215 2.283377 -9.705123 -0.066049 -0.000010 0.000002 0.000000 0.000000 0.000000 -7.292849 -24.627478 -10.493369 29.265434 7.363146 -3.388201 -17.609090 0.363170 4.378036 -0.025395 0.000003 0.000001 -0.000000 -0.000000 -0.000000 
0.502044 84.390182 1.161866 -6.754537 -10.764603 -0.098551 2.350547 -0.489662 0.702944 4.556735 -1.030874 -0.177194 4.560280 -1.018191 -0.179149 -7.499954 4.909735 -1.657255 -8.098166 21.572574 -1.812147 0.000001 -0.000000 -0.000000 0.544558 5.883268 -11.613208 45.575325 -69.569069 -16.063963 0.000003 -7.782569 0.000021 -31.763259 -7.795299 -5.528481 0.446508 2.443466 -20.707704 0.266811 1.901848 -15.971195 0.067020 0.960236 -7.983373 -0.000002 -0.000000 0.000000 -1.072575 9.181473 1.140482 3.470157 9.484754 0.995703 -0.802789 2.345332 2.638930 0.000002 0.000001 0.000001 1.130228 -0.356121 10.909846 -1.157140 48.588251 55.954139 0.000003 17.218926 0.000004 -15.383142 -4.961692 14.927353 -10.367135 -13.698109 -11.609880 4.637206 -8.634117 -0.225388 -1.273756 0.137310 -2.094871 0.000001 -0.000000 0.000000 0.066529 -0.961508 7.915610 0.008722 -0.348996 2.865064 0.002175 -0.174562 1.432493 -0.000000 -0.000003 0.000001 2.084729 25.289778 6.174079 23.267021 6.191558 2.956415 -17.741584 2.210534 -10.027163 -0.065370 -0.000009 0.000002 0.000000 -0.000002 -0.000000 -7.531265 -23.929038 -10.327509 29.271633 7.859937 -3.470121 -17.193596 0.687140 4.342359 -0.020972 -0.000003 0.000000 0.000000 0.000000 -0.000000 
0.698808 84.377953 1.133487 -6.914870 -12.150226 -0.441080 2.299162 -0.786417 0.757295 4.454218 -1.628712 -0.085341 4.459429 -1.616319 -0.088386 -7.201232 5.392163 -1.769084 -7.276917 23.754763 -1.995478 0.000001 0.000000 -0.000000 0.544683 6.330533 -11.781140 45.887000 -68.727850 -16.629088 0.000001 -7.814407 0.000019 -32.272080 -7.613791 -5.376644 0.444897 2.439261 -20.670242 0.266119 1.899363 -15.949738 0.066819 0.958956 -7.972681 0.000001 -0.000002 0.000001 -1.070888 9.164984 1.166442 3.469818 9.499275 1.004235 -0.802921 2.352554 2.643237 0.000003 -0.000001 -0.000001 1.108973 -0.416314 10.888513 -2.181800 51.126640 56.408955 0.000007 15.811799 -0.000015 -16.405244 -3.466325 16.492807 -10.367138 -13.698112 -11.609841 4.637193 -8.634128 -0.225380 -1.273760 0.137311 -2.094859 0.000001 0.000001 -0.000000 0.066509 -0.961492 7.915659 0.008726 -0.349010 2.865042 0.002176 -0.174555 1.432524 -0.000001 0.000000 0.000001 2.548509 26.268226 6.070817 23.208792 6.825653 3.227286 -18.021729 2.188174 -10.353640 -0.066914 -0.000012 -0.000002 0.000000 -0.000000 0.000000 -7.779387 -23.205158 -10.139791 29.298267 8.340017 -3.577359 -16.767457 1.068749 4.324687 -0.016622 0.000003 -0.000001 -0.000000 -0.000000 0.000000 
